<svg width="512" height="512" viewBox="0 0 512 512" fill="none" xmlns="http://www.w3.org/2000/svg">
  <defs>
    <!-- Main gradient -->
    <linearGradient id="emeraldGradient" x1="0%" y1="0%" x2="100%" y2="100%">
      <stop offset="0%" stop-color="#10b981"/>
      <stop offset="100%" stop-color="#059669"/>
    </linearGradient>
    
    <!-- Glow effect -->
    <filter id="glow" x="-50%" y="-50%" width="200%" height="200%">
      <feGaussianBlur stdDeviation="8" result="coloredBlur"/>
      <feMerge>
        <feMergeNode in="coloredBlur"/>
        <feMergeNode in="SourceGraphic"/>
      </feMerge>
    </filter>
    
    <!-- Inner shadow -->
    <filter id="innerShadow" x="-50%" y="-50%" width="200%" height="200%">
      <feOffset dx="0" dy="4"/>
      <feGaussianBlur stdDeviation="4" result="blur"/>
      <feComposite in2="SourceAlpha" operator="arithmetic" k2="-1" k3="1"/>
      <feColorMatrix type="matrix" values="0 0 0 0 0  0 0 0 0 0  0 0 0 0 0  0 0 0 0.3 0"/>
      <feBlend in2="SourceGraphic"/>
    </filter>
  </defs>
  
  <!-- Background glow -->
  <circle cx="256" cy="256" r="180" fill="#10b981" opacity="0.1" filter="url(#glow)"/>
  
  <!-- Outer shield shape -->
  <path 
    d="M256 48L432 128V272C432 368 352 448 256 480C160 448 80 368 80 272V128L256 48Z" 
    fill="url(#emeraldGradient)"
    filter="url(#innerShadow)"
  />
  
  <!-- Inner shield highlight -->
  <path 
    d="M256 72L408 144V272C408 356 336 428 256 456C176 428 104 356 104 272V144L256 72Z" 
    fill="none"
    stroke="rgba(255,255,255,0.2)"
    stroke-width="2"
  />
  
  <!-- Vault door circle -->
  <circle cx="256" cy="256" r="100" fill="#050505" opacity="0.6"/>
  <circle cx="256" cy="256" r="100" fill="none" stroke="rgba(255,255,255,0.1)" stroke-width="2"/>
  
  <!-- DNA Helix / Life symbol -->
  <g transform="translate(256, 256)">
    <!-- Central vertical line -->
    <line x1="0" y1="-60" x2="0" y2="60" stroke="url(#emeraldGradient)" stroke-width="4" stroke-linecap="round"/>
    
    <!-- DNA rungs -->
    <g stroke="#10b981" stroke-width="3" stroke-linecap="round">
      <line x1="-30" y1="-45" x2="30" y2="-45" opacity="0.9"/>
      <line x1="-35" y1="-25" x2="35" y2="-25" opacity="1"/>
      <line x1="-35" y1="0" x2="35" y2="0" opacity="1"/>
      <line x1="-35" y1="25" x2="35" y2="25" opacity="1"/>
      <line x1="-30" y1="45" x2="30" y2="45" opacity="0.9"/>
    </g>
    
    <!-- Helix curves left -->
    <path 
      d="M-35 -60 Q-50 -30 -35 0 Q-50 30 -35 60" 
      fill="none" 
      stroke="url(#emeraldGradient)" 
      stroke-width="4"
      stroke-linecap="round"
    />
    
    <!-- Helix curves right -->
    <path 
      d="M35 -60 Q50 -30 35 0 Q50 30 35 60" 
      fill="none" 
      stroke="url(#emeraldGradient)" 
      stroke-width="4"
      stroke-linecap="round"
    />
    
    <!-- Node dots -->
    <circle cx="-35" cy="-45" r="5" fill="#10b981"/>
    <circle cx="35" cy="-45" r="5" fill="#10b981"/>
    <circle cx="-35" cy="0" r="6" fill="#14b8a6"/>
    <circle cx="35" cy="0" r="6" fill="#14b8a6"/>
    <circle cx="-35" cy="45" r="5" fill="#10b981"/>
    <circle cx="35" cy="45" r="5" fill="#10b981"/>
  </g>
  
  <!-- Vault lock indicator (keyhole style) -->
  <circle cx="256" cy="360" r="12" fill="#10b981" filter="url(#glow)"/>
  <circle cx="256" cy="360" r="6" fill="#050505"/>
  
  <!-- Decorative corner accents -->
  <g stroke="rgba(255,255,255,0.3)" stroke-width="2" fill="none">
    <path d="M140 100 L120 120"/>
    <path d="M372 100 L392 120"/>
  </g>
</svg>
